<svg width="256px" height="256px" viewBox="0 0 1024.00 1024.00" class="icon" version="1.1" xmlns="http://www.w3.org/2000/svg" fill="#000000" transform="matrix(1, 0, 0, 1, 0, 0)rotate(0)"><g id="SVGRepo_bgCarrier" stroke-width="0"></g><g id="SVGRepo_tracerCarrier" stroke-linecap="round" stroke-linejoin="round" stroke="#dddbff" stroke-width="14.336000000000002"></g><g id="SVGRepo_iconCarrier"><path d="M512 128.042667c-185.557333 0-340.757333 132.288-376.32 307.498666l102.933333-43.349333c46.272-105.152 151.317333-178.816 273.386667-178.816 164.693333 0 298.666667 133.952 298.666667 298.666667 0 164.672-133.973333 298.666667-298.666667 298.666666-122.069333 0-227.114667-73.706667-273.386667-178.88L135.68 588.501333C171.242667 763.712 326.442667 896.042667 512 896.042667c211.754667 0 384-172.288 384-384 0-211.754667-172.245333-384-384-384z" fill="#443dff"></path><path d="M512 106.666667v128M512 789.333333v128M789.333333 512h128" fill="none"></path><path d="M64 512.042667L469.333333 341.333333l-106.666666 170.666667 106.666666 170.666667z" fill="#443dff"></path></g></svg>