<svg xmlns="http://www.w3.org/2000/svg" version="1.1" xmlns:xlink="http://www.w3.org/1999/xlink" xmlns:svgjs="http://svgjs.dev/svgjs" width="2000" height="555" viewBox="0 0 2000 555"><g transform="matrix(1,0,0,1,-1.2121212121212466,-0.5832539624857418)"><svg viewBox="0 0 396 110" data-background-color="#ffffff" preserveAspectRatio="xMidYMid meet" height="555" width="2000" xmlns="http://www.w3.org/2000/svg" xmlns:xlink="http://www.w3.org/1999/xlink"><g id="tight-bounds" transform="matrix(1,0,0,1,0.2400000000000091,0.11559988445662839)"><svg viewBox="0 0 395.52 109.76880023108671" height="109.76880023108671" width="395.52"><g><svg viewBox="0 0 569.9546724676894 158.1797142568777" height="109.76880023108671" width="395.52"><g transform="matrix(1,0,0,1,174.4346724676894,44.66247312749911)"><svg viewBox="0 0 395.52 68.85476800187948" height="68.85476800187948" width="395.52"><g id="textblocktransform"><svg viewBox="0 0 395.52 68.85476800187948" height="68.85476800187948" width="395.52" id="textblock"><g><svg viewBox="0 0 395.52 68.85476800187948" height="68.85476800187948" width="395.52"><g transform="matrix(1,0,0,1,0,0)"><svg width="395.52" viewBox="0.66 -35.69 207.82 36.18" height="68.85476800187948" data-palette-color="#2f27ce"><path d="M45.61-35.69L36.06 0 31.96 0 24.76-23.9Q24.24-25.49 23.61-27.91 22.97-30.32 22.95-30.81L22.95-30.81Q22.41-27.59 21.24-23.75L21.24-23.75 14.26 0 10.16 0 0.66-35.69 5.05-35.69 10.69-13.65Q11.87-9.01 12.4-5.25L12.4-5.25Q13.06-9.72 14.36-13.99L14.36-13.99 20.75-35.69 25.15-35.69 31.86-13.79Q33.03-10.01 33.84-5.25L33.84-5.25Q34.3-8.72 35.6-13.7L35.6-13.7 41.21-35.69 45.61-35.69ZM61.89 0.49L61.89 0.49Q55.95 0.49 52.52-3.13 49.09-6.74 49.09-13.16L49.09-13.16Q49.09-19.63 52.28-23.44 55.47-27.25 60.84-27.25L60.84-27.25Q65.87-27.25 68.8-23.94 71.73-20.63 71.73-15.21L71.73-15.21 71.73-12.65 53.29-12.65Q53.42-7.93 55.67-5.49 57.93-3.05 62.03-3.05L62.03-3.05Q66.35-3.05 70.58-4.86L70.58-4.86 70.58-1.25Q68.43-0.32 66.51 0.09 64.6 0.49 61.89 0.49ZM60.79-23.85L60.79-23.85Q57.57-23.85 55.65-21.75 53.73-19.65 53.39-15.94L53.39-15.94 67.38-15.94Q67.38-19.78 65.67-21.81 63.96-23.85 60.79-23.85ZM95.89-7.3L95.89-7.3Q95.89-3.56 93.11-1.54 90.33 0.49 85.3 0.49L85.3 0.49Q79.98 0.49 77-1.2L77-1.2 77-4.96Q78.93-3.98 81.14-3.42 83.34-2.86 85.4-2.86L85.4-2.86Q88.57-2.86 90.28-3.87 91.99-4.88 91.99-6.96L91.99-6.96Q91.99-8.52 90.63-9.63 89.28-10.74 85.35-12.26L85.35-12.26Q81.61-13.65 80.04-14.69 78.46-15.72 77.69-17.04 76.92-18.36 76.92-20.19L76.92-20.19Q76.92-23.46 79.58-25.35 82.25-27.25 86.88-27.25L86.88-27.25Q91.21-27.25 95.33-25.49L95.33-25.49 93.89-22.19Q89.86-23.85 86.59-23.85L86.59-23.85Q83.71-23.85 82.25-22.95 80.78-22.05 80.78-20.46L80.78-20.46Q80.78-19.38 81.33-18.63 81.88-17.87 83.1-17.19 84.32-16.5 87.79-15.21L87.79-15.21Q92.55-13.48 94.22-11.72 95.89-9.96 95.89-7.3ZM111.13-2.86L111.13-2.86Q112.2-2.86 113.2-3.02 114.2-3.17 114.79-3.34L114.79-3.34 114.79-0.24Q114.13 0.07 112.85 0.28 111.56 0.49 110.54 0.49L110.54 0.49Q102.78 0.49 102.78-7.69L102.78-7.69 102.78-23.61 98.94-23.61 98.94-25.56 102.78-27.25 104.48-32.96 106.83-32.96 106.83-26.76 114.59-26.76 114.59-23.61 106.83-23.61 106.83-7.86Q106.83-5.44 107.98-4.15 109.12-2.86 111.13-2.86ZM132.97-12.74L141.13-35.69 145.6-35.69 132.73 0 128.63 0 115.83-35.69 120.23-35.69 128.43-12.6Q129.85-8.62 130.68-4.86L130.68-4.86Q131.56-8.81 132.97-12.74L132.97-12.74ZM173.13-25.29L173.13-25.29Q173.13-19.87 169.43-16.96 165.73-14.04 158.85-14.04L158.85-14.04 154.65-14.04 154.65 0 150.5 0 150.5-35.69 159.75-35.69Q173.13-35.69 173.13-25.29ZM154.65-32.1L154.65-17.6 158.39-17.6Q163.9-17.6 166.37-19.38 168.84-21.17 168.84-25.1L168.84-25.1Q168.84-28.64 166.52-30.37 164.2-32.1 159.29-32.1L159.29-32.1 154.65-32.1ZM208.48-35.69L208.48 0 203.74 0 184.24-29.96 184.04-29.96Q184.43-24.68 184.43-20.29L184.43-20.29 184.43 0 180.6 0 180.6-35.69 185.29-35.69 204.75-5.86 204.94-5.86Q204.89-6.52 204.72-10.1 204.55-13.67 204.6-15.21L204.6-15.21 204.6-35.69 208.48-35.69Z" opacity="1" transform="matrix(1,0,0,1,0,0)" fill="#2f27ce" class="wordmark-text-0" data-fill-palette-color="primary" id="text-0"></path></svg></g></svg></g></svg></g></svg></g><g><svg viewBox="0 0 158.1797142568777 158.1797142568777" height="158.1797142568777" width="158.1797142568777"><g><svg></svg></g><g id="icon-0"><svg viewBox="0 0 158.1797142568777 158.1797142568777" height="158.1797142568777" width="158.1797142568777"><g><rect width="143.8263698150499" height="143.8263698150499" x="7.1766722209139004" y="7.1766722209139004" fill="#443dff" data-fill-palette-color="accent"></rect><rect width="143.8263698150499" height="143.8263698150499" x="14.353344441827796" y="5.329070518200751e-15" fill="#443dff" opacity="0.5" data-fill-palette-color="accent"></rect></g><g transform="matrix(1,0,0,1,20.504777774039702,24.821573094890162)"><svg viewBox="0 0 117.1701587087983 108.53656806709738" height="108.53656806709738" width="117.1701587087983"><g><svg xmlns="http://www.w3.org/2000/svg" xmlns:xlink="http://www.w3.org/1999/xlink" version="1.1" viewBox="0.5000000000000002 4 95 88" x="0" y="0" height="108.53656806709738" width="117.1701587087983" class="icon-cg-0" data-fill-palette-color="quaternary" id="cg-0"><path d="M50.524 86.876c-18.832 0-35.004-14.036-37.624-32.648l3.96-0.56c2.344 16.648 16.82 29.208 33.668 29.208 18.752 0 34-15.252 34-33.992 0-18.752-15.252-34.008-34-34.008-16.968 0-31.456 12.66-33.696 29.452l-3.964-0.532c2.508-18.768 18.7-32.92 37.668-32.92 20.952 0 37.992 17.048 37.992 38.008-0.004 20.944-17.052 37.992-38.004 37.992z" fill="#ffffff" data-fill-palette-color="quaternary"></path><path d="M22.5 58.996c-0.252 0-0.5-0.052-0.744-0.144l-20-8c-0.76-0.296-1.256-1.04-1.256-1.856s0.5-1.56 1.256-1.856l20-7.996c0.764-0.316 1.648-0.108 2.216 0.5 0.56 0.612 0.688 1.508 0.316 2.252l-3.552 7.096 3.332 6.66c0.32 0.352 0.512 0.82 0.512 1.336 0 1.116-0.832 2.124-2.04 2-0.016 0.008-0.032 0.008-0.04 0.008zM7.888 48.996l10.472 4.188-1.648-3.284c-0.28-0.568-0.28-1.232 0-1.788l1.648-3.292-10.472 4.176z" fill="#ffffff" data-fill-palette-color="quaternary"></path><path d="M93.5 50h-12c-1.1 0-2-0.9-2-2s0.9-2 2-2h12c1.104 0 2 0.9 2 2s-0.896 2-2 2z" fill="#ffffff" data-fill-palette-color="quaternary"></path><path d="M51.5 20c-1.1 0-2-0.9-2-2v-12c0-1.1 0.896-2 2-2s2 0.9 2 2v12c0 1.1-0.896 2-2 2z" fill="#ffffff" data-fill-palette-color="quaternary"></path><path d="M51.5 92c-1.1 0-2-0.9-2-2v-12c0-1.1 0.896-2 2-2s2 0.9 2 2v12c0 1.1-0.896 2-2 2z" fill="#ffffff" data-fill-palette-color="quaternary"></path></svg></g></svg></g></svg></g></svg></g></svg></g><defs></defs></svg><rect width="395.52" height="109.76880023108671" fill="none" stroke="none" visibility="hidden"></rect></g></svg></g></svg>